<svg xmlns="http://www.w3.org/2000/svg" viewBox="0 0 69.74 69.74" height="55"><defs><style>.cls-1{isolation:isolate;}.cls-2{fill:#d71e05;}</style></defs><g id="Capa_2" data-name="Capa 2"><g id="Capa_1-2" data-name="Capa 1"><g class="cls-1"><path class="cls-2" d="M59.53,10.21A34.8,34.8,0,1,0,67,21.3a34.83,34.83,0,0,0-7.47-11.09M55.37,55.37a29,29,0,1,1,8.49-20.5,28.82,28.82,0,0,1-8.49,20.5"/><path class="cls-2" d="M22.68,50.78a27.56,27.56,0,0,0,12.19,2.69,27.52,27.52,0,0,0,12.19-2.69,2.6,2.6,0,0,0-2.32-4.66,22.2,22.2,0,0,1-9.87,2.15A22.54,22.54,0,0,1,25,46.12a2.69,2.69,0,0,0-1.16-.27,2.6,2.6,0,0,0-1.16,4.93"/><path class="cls-2" d="M27.21,31.48a5.31,5.31,0,1,0-5.31,5.3,5.31,5.31,0,0,0,5.31-5.3"/><path class="cls-2" d="M48.47,34.39H43.22a2.66,2.66,0,1,1,0-5.31h5.25a2.66,2.66,0,0,1,0,5.31"/></g></g></g></svg>